<?xml version="1.0" standalone="no"?>
<!DOCTYPE svg PUBLIC "-//W3C//DTD SVG 20010904//EN"
 "http://www.w3.org/TR/2001/REC-SVG-20010904/DTD/svg10.dtd">
<svg version="1.0" xmlns="http://www.w3.org/2000/svg"
 width="180.000000pt" height="180.000000pt" viewBox="0 0 180.000000 180.000000"
 preserveAspectRatio="xMidYMid meet">

<g transform="translate(0.000000,180.000000) scale(0.100000,-0.100000)"
fill="#000000" stroke="none">
<path d="M854 1619 c-23 -4 -73 -22 -110 -39 -93 -43 -188 -85 -384 -173 -90
-41 -169 -82 -175 -91 -7 -12 -2 -39 23 -109 46 -127 44 -120 51 -239 6 -108
16 -136 45 -125 13 5 16 23 16 82 0 41 2 75 5 75 3 0 127 -61 275 -135 l270
-135 0 -235 c0 -129 -3 -235 -6 -235 -3 0 -40 19 -82 42 -43 23 -162 88 -267
144 l-190 102 -5 53 c-5 56 -18 69 -44 44 -11 -11 -16 -34 -16 -70 0 -63 -1
-62 155 -145 55 -29 186 -100 292 -157 l192 -104 98 52 c54 28 121 64 148 79
62 34 163 88 275 148 133 70 120 35 120 342 0 147 4 280 9 296 46 145 81 276
76 284 -13 21 -50 8 -213 -74 l-168 -84 -59 32 c-33 17 -61 31 -62 31 -1 0 5
24 13 53 43 167 -109 323 -282 291z m152 -91 l35 -33 -65 -65 -66 -64 -29 28
c-32 30 -64 32 -69 3 -4 -21 75 -107 98 -107 8 0 48 34 87 75 40 41 75 75 79
75 4 0 4 -29 2 -65 -9 -104 -69 -165 -169 -171 -83 -4 -164 56 -184 139 -12
45 4 114 33 148 43 52 80 69 150 69 56 0 66 -3 98 -32z m-338 -79 c-10 -30 -7
-130 6 -159 4 -11 -36 -36 -173 -105 -99 -49 -182 -87 -185 -85 -9 10 -66 161
-66 176 0 9 21 24 48 36 74 32 262 118 317 144 64 30 66 30 53 -7z m850 -256
c-17 -54 -32 -103 -33 -109 -3 -9 -515 -274 -529 -274 -2 0 13 51 33 114 l37
115 184 91 c308 152 325 160 331 160 4 0 -7 -44 -23 -97z m-760 -2 c90 -70
204 -68 291 5 l32 26 45 -17 c25 -9 42 -21 37 -26 -4 -4 -49 -28 -98 -52 l-91
-44 -37 -121 c-20 -67 -41 -132 -47 -146 l-9 -25 -243 122 c-134 67 -249 126
-256 131 -9 5 38 34 150 91 90 46 169 84 176 84 7 1 30 -12 50 -28z m720 -418
l-3 -228 -100 -53 c-55 -30 -170 -91 -255 -137 -85 -46 -163 -87 -172 -91 -17
-6 -18 9 -18 230 l0 235 268 135 c147 74 270 135 275 135 4 1 6 -101 5 -226z"/>
<path d="M1266 716 c-119 -69 -135 -86 -110 -110 15 -15 19 -15 47 3 18 10 69
39 114 65 96 55 111 70 93 91 -7 8 -18 15 -24 15 -6 -1 -60 -29 -120 -64z"/>
<path d="M1295 598 c-87 -54 -125 -80 -125 -89 0 -4 7 -14 15 -23 14 -13 25
-10 105 37 69 40 90 57 90 73 0 17 -22 38 -33 33 -1 0 -24 -14 -52 -31z"/>
<path d="M402 858 c-8 -8 -12 -53 -12 -134 0 -141 -9 -126 125 -199 142 -77
198 -103 211 -98 11 4 14 34 14 138 0 149 4 141 -90 189 -30 16 -91 48 -136
72 -89 48 -94 50 -112 32z m172 -134 l106 -56 0 -79 c0 -43 -3 -79 -7 -79 -5
0 -55 26 -112 58 l-103 57 -5 64 c-4 59 0 91 11 91 3 0 52 -25 110 -56z"/>
<path d="M271 767 c-17 -21 -3 -49 23 -45 15 2 21 10 21 28 0 28 -26 38 -44
17z"/>
</g>
</svg>
