<?xml version="1.0" standalone="no"?>
<!DOCTYPE svg PUBLIC "-//W3C//DTD SVG 20010904//EN"
 "http://www.w3.org/TR/2001/REC-SVG-20010904/DTD/svg10.dtd">
<svg version="1.0" xmlns="http://www.w3.org/2000/svg"
 width="900.000000pt" height="520.000000pt" viewBox="0 0 900.000000 520.000000"
 preserveAspectRatio="xMidYMid meet">

<g transform="translate(0.000000,520.000000) scale(0.100000,-0.100000)"
fill="#000000" stroke="none">
<path d="M4056 4235 c-538 -217 -985 -400 -992 -406 -11 -9 -14 -81 -14 -390
l0 -379 -528 0 c-517 0 -529 0 -550 -20 -50 -47 -35 -118 31 -150 39 -19 65
-20 539 -20 l498 0 0 -150 0 -150 -180 0 c-202 0 -230 -7 -249 -61 -15 -44 7
-93 49 -108 20 -6 103 -11 206 -11 l174 0 0 -150 0 -149 -431 -3 -431 -3 -24
-28 c-31 -36 -31 -78 0 -114 l24 -28 431 -3 431 -3 0 -203 c0 -199 0 -203 23
-224 21 -20 413 -185 1665 -703 220 -92 320 -128 335 -124 12 4 202 81 422
172 1372 567 1531 635 1553 659 l22 25 0 1143 c0 1076 -1 1144 -17 1159 -10 8
-155 72 -323 140 -1333 546 -1636 669 -1659 673 -18 3 -318 -114 -1005 -391z
m1349 65 c192 -77 352 -143 357 -148 5 -5 -36 -26 -89 -49 -54 -22 -425 -179
-826 -348 l-727 -308 -368 153 c-202 83 -370 155 -375 159 -6 6 1650 679 1673
681 3 0 163 -63 355 -140z m972 -392 c194 -78 349 -146 345 -150 -6 -6 -812
-345 -1432 -603 -214 -89 -237 -97 -265 -86 -81 30 -665 277 -665 281 0 7
1632 699 1650 699 8 1 174 -63 367 -141z m-1894 -804 l477 -199 0 -1018 c0
-966 -1 -1017 -17 -1009 -10 5 -400 168 -868 362 -467 195 -851 354 -851 354
-1 1 -4 72 -8 158 l-6 157 206 3 206 3 24 28 c31 36 31 78 0 114 l-24 28 -203
5 -203 5 -4 148 -4 147 425 0 c291 0 434 4 457 11 45 16 66 66 46 113 -8 18
-20 37 -27 42 -8 5 -212 11 -454 14 l-440 5 0 145 0 145 100 5 c103 6 137 17
155 50 20 37 4 101 -29 117 -9 4 -63 10 -121 13 l-105 5 -1 280 c-1 154 0 283
2 286 4 7 352 -136 1267 -517z m2404 -1078 l-2 -428 -540 -225 c-297 -123
-690 -286 -872 -362 l-333 -139 0 1017 0 1016 868 362 867 361 7 -586 c4 -323
7 -780 5 -1016z"/>
<path d="M5740 1567 c-62 -32 -85 -67 -85 -132 0 -60 20 -95 75 -132 40 -28
74 -29 120 -4 101 53 110 204 15 260 -51 31 -78 33 -125 8z"/>
<path d="M5365 1440 c-11 -4 -33 -22 -49 -39 -41 -42 -48 -124 -17 -175 62
-100 184 -98 238 4 27 51 29 89 7 137 -32 65 -115 100 -179 73z"/>
</g>
</svg>
