<?xml version="1.0" standalone="no"?>
<!DOCTYPE svg PUBLIC "-//W3C//DTD SVG 20010904//EN"
 "http://www.w3.org/TR/2001/REC-SVG-20010904/DTD/svg10.dtd">
<svg version="1.0" xmlns="http://www.w3.org/2000/svg"
 width="120.000000pt" height="120.000000pt" viewBox="0 0 120.000000 120.000000"
 preserveAspectRatio="xMidYMid meet">

<g transform="translate(0.000000,120.000000) scale(0.100000,-0.100000)"
fill="#000000" stroke="none">
<path d="M205 1020 c-93 -88 -171 -163 -172 -167 -5 -14 186 -208 194 -198 4
6 49 48 98 95 267 250 248 228 228 253 -31 39 -166 177 -172 176 -3 0 -82 -72
-176 -159z m190 80 c18 -28 -55 -100 -89 -87 -23 9 -20 31 10 66 25 31 66 41
79 21z m109 -117 c8 -20 -21 -63 -55 -80 -19 -10 -27 -10 -38 2 -13 12 -13 18
-1 40 14 26 53 54 76 55 7 0 15 -8 18 -17z m-316 -86 c5 -25 -46 -77 -75 -77
-18 0 -23 6 -23 25 0 55 89 101 98 52z m112 -120 c0 -51 -91 -97 -98 -50 -4
29 39 73 73 73 20 0 25 -5 25 -23z"/>
<path d="M445 839 c-72 -66 -150 -140 -174 -163 l-43 -44 83 -171 c45 -94 85
-171 89 -171 23 0 61 66 89 157 17 55 31 104 31 107 0 3 -11 1 -25 -6 -47 -21
-70 24 -40 81 17 34 54 47 75 25 13 -13 18 -6 41 63 24 74 27 78 57 81 18 2
32 7 32 11 0 15 -70 151 -77 151 -5 0 -67 -54 -138 -121z"/>
<path d="M756 799 c-71 -10 -131 -20 -133 -22 -3 -3 99 -149 192 -273 l23 -30
156 21 c86 12 159 25 162 28 8 7 4 13 -106 165 -109 153 -81 142 -294 111z
m159 -105 c20 -31 17 -34 -35 -44 -37 -7 -44 -5 -66 19 -13 14 -24 29 -24 33
0 9 27 15 71 17 29 1 40 -4 54 -25z m125 -75 c12 -16 21 -32 19 -34 -2 -2 -25
-6 -50 -10 -42 -6 -48 -5 -68 20 -29 38 -27 43 22 48 23 2 45 4 49 5 4 1 16
-12 28 -29z m-110 -44 c0 -7 -21 -15 -47 -19 -42 -5 -50 -4 -65 16 -27 36 -22
47 25 50 43 3 87 -21 87 -47z"/>
<path d="M50 782 c0 -7 15 -27 34 -45 19 -18 39 -43 46 -56 11 -21 10 -23 -4
-18 -9 4 -16 4 -16 1 0 -22 99 -189 137 -229 25 -27 43 -41 39 -30 -19 47 -17
59 4 28 11 -17 23 -41 25 -54 5 -24 35 -61 35 -43 0 5 -33 77 -74 160 -67 135
-81 156 -150 224 -42 41 -76 69 -76 62z"/>
<path d="M596 749 c-3 -8 -32 -102 -65 -209 l-60 -195 31 -45 c72 -102 191
-261 193 -258 4 5 125 406 125 416 0 10 -180 265 -206 291 -11 13 -14 13 -18
0z m72 -185 c38 -26 93 -164 65 -164 -15 0 -33 23 -33 41 0 25 -39 69 -60 69
-35 0 -53 -43 -48 -115 4 -68 30 -120 60 -120 20 0 48 -24 48 -40 0 -14 -22
-25 -50 -25 -11 0 -30 15 -44 33 -63 83 -63 267 1 317 31 24 33 24 61 4z m58
-252 c12 -43 -11 -44 -45 -2 -26 33 -31 47 -26 68 l7 27 29 -35 c16 -19 32
-45 35 -58z"/>
<path d="M987 477 l-147 -20 -46 -146 c-25 -80 -54 -174 -66 -209 -11 -35 -18
-65 -16 -68 6 -6 322 37 329 45 8 7 129 394 129 410 0 13 1 13 -183 -12z m67
-204 c-24 -76 -44 -141 -44 -145 0 -5 -9 -8 -20 -8 -25 0 -25 -2 5 95 14 44
25 82 25 84 0 2 -18 -13 -40 -33 -22 -20 -43 -36 -48 -36 -10 0 -72 97 -72
112 0 7 4 20 9 28 8 11 18 5 49 -30 l39 -44 64 57 c35 31 67 57 71 57 3 0 -14
-62 -38 -137z m-199 -85 c-24 -81 -32 -98 -50 -98 -20 0 -19 11 11 108 23 78
27 83 41 69 15 -15 15 -21 -2 -79z"/>
</g>
</svg>
