<?xml version="1.0" standalone="no"?>
<!DOCTYPE svg PUBLIC "-//W3C//DTD SVG 20010904//EN"
 "http://www.w3.org/TR/2001/REC-SVG-20010904/DTD/svg10.dtd">
<svg version="1.0" xmlns="http://www.w3.org/2000/svg"
 width="330.000000pt" height="312.000000pt" viewBox="0 0 330.000000 312.000000"
 preserveAspectRatio="xMidYMid meet">

<g transform="translate(0.000000,312.000000) scale(0.100000,-0.100000)"
fill="#000000" stroke="none">
<path d="M332 2688 c-9 -9 -12 -285 -12 -1179 l0 -1168 22 -15 c20 -14 163
-16 1328 -16 1165 0 1308 2 1328 16 24 17 29 53 10 72 -9 9 -303 12 -1260 12
-686 0 -1248 3 -1248 8 0 4 52 59 114 121 110 110 116 114 141 103 35 -16 128
-15 168 2 39 17 92 71 106 109 6 16 11 54 11 86 0 47 -6 66 -31 106 l-31 49
63 128 63 128 46 0 c25 0 64 9 86 19 l41 19 99 -79 c68 -55 98 -85 96 -97 -2
-9 -4 -42 -5 -73 -4 -130 126 -233 250 -200 133 36 194 171 134 298 l-23 51
39 58 c51 76 55 87 36 113 -27 40 -62 24 -113 -50 l-45 -67 -60 2 c-40 1 -74
-5 -102 -18 l-41 -18 -102 82 c-72 58 -99 86 -96 98 16 54 16 76 2 124 -25 88
-104 148 -195 148 -64 0 -91 -11 -141 -56 -77 -70 -87 -198 -22 -276 l25 -30
-63 -129 c-64 -129 -64 -129 -100 -129 -63 0 -113 -21 -156 -64 -61 -60 -79
-140 -49 -213 l16 -37 -121 -121 -120 -120 0 1096 c0 838 -3 1098 -12 1107 -7
7 -24 12 -38 12 -14 0 -31 -5 -38 -12z m883 -1150 c73 -64 30 -188 -65 -188
-40 0 -88 35 -98 72 -19 72 28 138 98 138 26 0 47 -7 65 -22z m535 -435 c41
-53 16 -139 -48 -161 -37 -13 -89 5 -115 40 -77 104 83 222 163 121z m-837
-203 c87 -96 -42 -228 -141 -145 -38 32 -48 72 -28 119 29 70 116 83 169 26z"/>
<path d="M2063 2375 c-253 -68 -423 -319 -386 -567 14 -99 46 -176 100 -248
159 -213 470 -269 690 -125 l51 34 135 -134 c136 -136 164 -154 195 -123 32
32 14 61 -122 197 l-134 133 31 46 c74 109 103 268 73 396 -67 283 -360 464
-633 391z m232 -101 c158 -41 275 -169 306 -335 40 -221 -125 -447 -349 -477
-132 -18 -253 20 -347 109 -100 95 -150 239 -126 367 45 246 279 398 516 336z"/>
<path d="M2114 2111 c-50 -30 -74 -68 -74 -116 0 -48 17 -68 52 -63 20 3 29
15 58 78 9 19 57 25 76 9 25 -20 15 -50 -30 -93 -47 -43 -62 -80 -52 -120 12
-49 83 -45 93 5 4 19 16 35 35 45 70 36 93 153 42 214 -15 17 -39 37 -55 45
-39 21 -108 19 -145 -4z"/>
<path d="M2152 1698 c-20 -20 -14 -56 13 -74 23 -15 27 -15 50 0 44 29 28 86
-25 86 -14 0 -31 -5 -38 -12z"/>
</g>
</svg>
