<?xml version="1.0" standalone="no"?>
<!DOCTYPE svg PUBLIC "-//W3C//DTD SVG 20010904//EN"
 "http://www.w3.org/TR/2001/REC-SVG-20010904/DTD/svg10.dtd">
<svg version="1.0" xmlns="http://www.w3.org/2000/svg"
 width="900.000000pt" height="940.000000pt" viewBox="0 0 900.000000 940.000000"
 preserveAspectRatio="xMidYMid meet">

<g transform="translate(0.000000,940.000000) scale(0.100000,-0.100000)"
fill="#000000" stroke="none">
<path d="M2765 7915 c-75 -26 -123 -109 -110 -191 5 -34 16 -54 50 -89 25 -24
57 -48 72 -52 15 -5 1074 -8 2353 -8 l2325 0 42 28 c122 79 126 224 8 302 -30
20 -54 20 -2365 22 -1990 2 -2341 0 -2375 -12z"/>
<path d="M3105 6198 c-25 -84 -21 -88 68 -88 125 -1 306 -77 378 -158 51 -59
137 -233 189 -387 67 -193 77 -224 108 -335 17 -58 43 -150 60 -205 16 -55 32
-111 34 -125 3 -14 22 -79 43 -145 21 -66 51 -169 67 -229 16 -60 45 -161 65
-225 19 -64 39 -134 43 -156 5 -22 25 -94 45 -160 20 -66 41 -133 46 -150 9
-28 6 -34 -63 -100 -40 -38 -167 -162 -283 -275 -215 -211 -849 -820 -1125
-1081 -173 -164 -318 -293 -430 -382 -41 -33 -77 -63 -80 -66 -10 -13 -94 -76
-154 -114 -157 -102 -261 -143 -436 -172 -192 -32 -171 -22 -190 -93 l-17 -62
825 2 825 3 19 59 c11 32 18 60 16 61 -2 2 -57 13 -123 24 -169 29 -190 37
-239 84 -76 72 -79 166 -11 269 45 69 1548 1560 1559 1547 1 -2 13 -42 26 -89
12 -47 45 -159 73 -250 27 -91 51 -177 53 -191 2 -14 10 -46 18 -70 29 -90 85
-275 92 -304 3 -16 30 -110 60 -207 30 -97 54 -185 54 -194 0 -10 11 -54 24
-98 38 -128 52 -237 37 -287 -17 -56 -78 -120 -153 -157 -62 -31 -251 -72
-333 -72 -30 0 -34 -4 -54 -56 -11 -31 -21 -60 -21 -65 0 -5 395 -9 973 -9
l974 0 17 61 c9 34 15 63 14 64 -2 2 -57 9 -123 15 -136 14 -255 39 -306 65
-112 58 -233 183 -275 284 -15 36 -42 98 -60 138 -19 40 -35 83 -38 97 -2 13
-29 91 -59 173 -60 163 -158 467 -162 504 -2 13 -22 87 -45 164 -23 77 -52
181 -65 230 -12 50 -46 171 -75 270 -29 99 -71 247 -95 328 l-42 148 201 196
c111 108 462 453 781 767 319 314 628 612 686 661 58 50 129 110 158 135 61
52 129 97 221 146 36 19 76 41 90 48 69 38 330 115 412 123 43 4 72 12 81 22
12 13 37 93 37 115 0 3 -378 6 -839 6 l-840 0 -6 -22 c-3 -13 -11 -40 -17 -61
-6 -20 -8 -40 -4 -45 4 -4 56 -10 114 -13 134 -8 223 -36 271 -87 33 -33 35
-39 35 -101 0 -60 -4 -73 -43 -140 -72 -122 -234 -319 -427 -520 -71 -74 -304
-301 -519 -504 -214 -204 -411 -390 -436 -415 l-47 -44 -15 53 c-9 30 -19 69
-22 87 -3 18 -12 51 -19 75 -28 85 -67 219 -100 344 -19 70 -50 181 -70 245
-20 65 -36 125 -36 134 0 9 -18 73 -39 143 -52 168 -87 306 -110 431 -21 119
26 212 134 268 44 22 68 26 204 33 85 5 157 12 161 16 7 8 40 106 40 117 0 3
-398 6 -885 6 l-884 0 -16 -52z"/>
</g>
</svg>
