<?xml version="1.0" standalone="no"?>
<!DOCTYPE svg PUBLIC "-//W3C//DTD SVG 20010904//EN"
 "http://www.w3.org/TR/2001/REC-SVG-20010904/DTD/svg10.dtd">
<svg version="1.0" xmlns="http://www.w3.org/2000/svg"
 width="180.000000pt" height="180.000000pt" viewBox="0 0 180.000000 180.000000"
 preserveAspectRatio="xMidYMid meet">

<g transform="translate(0.000000,180.000000) scale(0.100000,-0.100000)"
fill="#000000" stroke="none">
<path d="M180 900 l0 -900 65 0 65 0 0 195 0 195 595 0 595 0 0 -195 0 -195
60 0 60 0 0 900 0 900 -720 0 -720 0 0 -900z m1320 630 l0 -200 -595 0 -595 0
0 200 0 200 595 0 595 0 0 -200z m0 -440 l0 -180 -595 0 -595 0 0 180 0 180
595 0 595 0 0 -180z m0 -440 l0 -190 -595 0 -595 0 0 190 0 190 595 0 595 0 0
-190z"/>
</g>
</svg>
