<?xml version="1.0" standalone="no"?>
<!DOCTYPE svg PUBLIC "-//W3C//DTD SVG 20010904//EN"
 "http://www.w3.org/TR/2001/REC-SVG-20010904/DTD/svg10.dtd">
<svg version="1.0" xmlns="http://www.w3.org/2000/svg"
 width="900.000000pt" height="902.000000pt" viewBox="0 0 900.000000 902.000000"
 preserveAspectRatio="xMidYMid meet">

<g transform="translate(0.000000,902.000000) scale(0.100000,-0.100000)"
fill="#000000" stroke="none">
<path d="M3660 8647 c-415 -200 -818 -394 -895 -431 -77 -38 -437 -211 -800
-386 -724 -349 -1282 -619 -1617 -783 -241 -119 -277 -148 -320 -256 -22 -55
-22 -66 -24 -471 0 -228 2 -543 5 -700 6 -247 9 -290 25 -323 24 -49 117 -133
164 -148 20 -6 92 -13 160 -16 l122 -5 0 -2197 c0 -1208 3 -2270 7 -2361 6
-163 6 -166 41 -235 63 -128 161 -229 272 -282 l55 -26 560 -8 c628 -9 5620
-8 6295 1 l435 5 57 28 c119 58 218 164 284 302 l33 70 3 2280 c1 1254 3 2308
6 2342 3 46 8 63 20 68 10 4 64 10 122 15 58 4 122 15 142 23 50 21 137 103
156 147 21 48 30 364 28 970 -2 469 -2 476 -25 525 -12 28 -36 65 -54 84 -77
80 -148 118 -942 501 -492 238 -1229 595 -1775 860 -1364 663 -1576 758 -1720
767 l-65 4 -755 -364z m1000 -446 c194 -79 1012 -441 1460 -646 52 -24 295
-134 540 -246 828 -376 1033 -471 1337 -619 210 -103 244 -123 260 -152 16
-30 18 -62 18 -313 0 -298 -5 -333 -49 -357 -11 -7 -84 -15 -161 -18 -115 -6
-147 -11 -182 -29 -69 -35 -77 -55 -84 -215 -3 -78 -7 -1187 -7 -2466 l-2
-2325 -27 -23 c-53 -44 -86 -55 -179 -60 -137 -7 -178 2 -230 50 l-44 41 0
1846 0 1847 -42 51 c-32 38 -52 52 -78 57 -61 10 -5011 7 -5188 -4 -191 -12
-247 -23 -269 -56 -10 -16 -18 -66 -24 -151 -5 -71 -12 -911 -15 -1868 l-7
-1739 -21 -18 c-46 -40 -81 -51 -172 -56 -137 -7 -178 2 -230 50 l-44 41 0
2454 0 2455 -36 43 c-19 24 -49 48 -67 55 -17 6 -90 15 -162 21 -159 13 -201
23 -217 52 -8 16 -12 108 -12 324 -1 286 0 303 19 328 21 28 151 92 680 333
61 28 164 75 230 105 66 30 174 79 240 110 172 79 534 243 645 292 93 42 314
141 520 235 649 294 1304 583 1360 600 64 21 144 11 240 -29z m-1488 -4790
c123 -10 192 -39 205 -89 5 -15 8 -144 8 -287 0 -293 -2 -302 -73 -332 -58
-24 -314 -36 -652 -30 -478 9 -478 9 -488 307 -5 186 8 321 36 360 32 44 85
62 201 70 151 10 637 10 763 1z m36 -980 c89 -7 94 -8 128 -43 47 -46 53 -80
54 -303 0 -211 -10 -284 -45 -335 l-25 -37 -516 -7 -515 -6 -44 37 c-26 21
-50 52 -57 73 -7 23 -12 114 -12 260 -1 210 0 228 21 272 32 70 57 82 192 88
159 9 705 9 819 1z m1586 -33 c20 -23 41 -58 47 -78 7 -23 10 -124 7 -276 -3
-269 -7 -282 -76 -311 -55 -23 -242 -32 -652 -33 l-376 0 -41 43 c-22 23 -46
53 -53 66 -14 27 -18 398 -5 490 10 72 41 107 108 120 84 18 92 18 559 20
l446 1 36 -42z m-1502 -958 c20 -6 48 -24 61 -40 33 -39 41 -120 35 -369 -4
-202 -5 -208 -66 -273 l-26 -28 -506 0 -505 0 -53 46 -52 46 0 243 c0 133 3
257 6 274 4 17 25 52 47 77 l41 47 491 -6 c294 -4 505 -11 527 -17z m1499 -15
c56 -53 59 -71 59 -329 0 -141 -4 -246 -11 -263 -5 -15 -27 -45 -47 -65 l-36
-38 -506 0 -506 0 -41 43 c-22 23 -46 52 -53 65 -7 16 -11 90 -11 230 0 196 8
290 30 331 25 46 20 46 480 51 667 8 604 10 642 -25z m1470 -7 c22 -24 43 -54
47 -68 12 -43 8 -461 -6 -506 -18 -62 -53 -91 -120 -101 -31 -4 -257 -8 -502
-7 -516 1 -510 0 -549 77 -22 45 -24 64 -29 236 -2 103 -1 218 3 255 6 61 11
71 49 112 l43 44 512 0 513 0 39 -42z"/>
<path d="M1863 5841 c-68 -9 -103 -27 -130 -68 -16 -24 -18 -56 -18 -288 0
-292 4 -313 62 -340 53 -25 232 -34 618 -30 373 3 432 10 476 55 45 44 53 95
53 315 0 267 -15 315 -110 346 -45 14 -846 22 -951 10z"/>
<path d="M3365 5841 c-191 -11 -200 -28 -200 -371 0 -224 1 -237 22 -270 12
-20 32 -45 45 -57 23 -21 28 -22 418 -23 624 -3 612 -4 651 23 60 39 67 69 74
287 8 244 -1 324 -44 361 -16 16 -52 32 -82 39 -61 13 -704 21 -884 11z"/>
<path d="M4835 5841 c-123 -7 -152 -18 -182 -74 -16 -28 -18 -66 -21 -291 l-4
-259 53 -53 53 -54 501 0 502 0 52 55 52 55 -3 258 -3 258 -38 52 c-30 40 -45
52 -65 52 -353 6 -813 6 -897 1z"/>
<path d="M6305 5841 c-60 -4 -122 -12 -136 -20 -62 -31 -79 -115 -79 -401 l0
-196 58 -57 59 -58 504 6 504 7 28 31 c62 69 62 71 62 327 0 258 -4 276 -64
334 l-27 26 -400 4 c-219 2 -448 0 -509 -3z"/>
</g>
</svg>
